# xmcd CD database file
#
# Track frame offsets:
#	150
#	27879
#	52558
#	71705
#	104142
#	132341
#	143727
#	169848
#	196709
#
# Disc length: 2975 seconds
#
# Revision: 0
# Processed by: cddbd v1.5.2PL0 Copyright (c) Steve Scherf et al.
# Submitted via: CDex 1.50
#
DISCID=790b9d09
DTITLE=Dexter Goldberg Trio - Tell Me Something New_Dexter Goldberg (piano), Bertrand Beruard (ontrebasse), Kevin Lucchetti (batterie)
DYEAR=2018
DGENRE=Jazz
TTITLE0=Tell Me Something New
TTITLE1=A Chord Into Me
TTITLE2=RER B
TTITLE3=Rainbow
TTITLE4=Osmose
TTITLE5=Nostalgia
TTITLE6=Smart Tone
TTITLE7=Wave Of Sand
TTITLE8=I'll Be Ok
EXTD=YEAR: 2018
EXTT0=
EXTT1=
EXTT2=
EXTT3=
EXTT4=
EXTT5=
EXTT6=
EXTT7=
EXTT8=
PLAYORDER=
